 <svg version="1.0" xmlns="http://www.w3.org/2000/svg"  width="900.000000pt" height="900.000000pt" viewBox="0 0 900.000000 900.000000"  preserveAspectRatio="xMidYMid meet">  <g transform="translate(0.000000,900.000000) scale(0.100000,-0.100000)" fill="#000000" stroke="none"> <path d="M4715 7930 l-1820 -5 -445 -448 c-245 -247 -581 -585 -747 -752 l-303 -303 0 -2761 c0 -1649 4 -2762 9 -2765 6 -4 3835 -9 5141 -6 7 0 10 555 10 1646 l0 1646 47 61 c26 34 52 67 59 72 6 6 33 39 60 75 26 36 53 70 59 75 7 6 27 30 45 55 19 25 48 61 65 80 16 20 42 51 57 70 70 92 94 119 103 119 6 1 26 -12 45 -27 65 -53 63 -53 157 63 17 22 83 105 147 184 105 131 130 171 109 171 -11 0 -83 67 -83 76 0 7 85 121 100 134 3 3 30 37 60 75 30 39 67 84 83 100 15 17 40 55 55 85 24 49 27 66 27 161 0 96 -3 111 -29 162 -32 64 -116 145 -274 264 -13 10 -43 34 -66 53 -23 19 -62 51 -86 70 -24 19 -69 56 -99 81 -151 124 -222 155 -340 146 -43 -3 -86 -9 -97 -15 -10 -5 -35 -17 -54 -27 -19 -10 -58 -40 -87 -68 -38 -36 -54 -47 -58 -36 -3 8 -6 347 -8 753 -1 484 -5 740 -12 740 -5 1 -829 -1 -1830 -4z m1723 -903 l2 -768 -46 -60 c-25 -32 -52 -59 -61 -59 -8 0 -32 14 -53 30 -21 17 -44 30 -51 30 -8 0 -45 -39 -84 -88 -38 -48 -76 -93 -82 -100 -7 -7 -34 -41 -60 -75 -26 -34 -50 -64 -53 -67 -19 -16 -80 -99 -80 -108 0 -6 20 -26 45 -44 24 -18 44 -39 45 -47 0 -12 -44 -74 -77 -109 -7 -7 -34 -41 -60 -75 -26 -34 -52 -66 -59 -72 -6 -5 -33 -39 -60 -75 -26 -36 -53 -69 -59 -75 -7 -5 -27 -30 -45 -55 -19 -25 -48 -61 -65 -80 -16 -20 -41 -50 -55 -68 -14 -19 -38 -49 -55 -68 l-30 -34 -1575 -3 -1575 -2 -5 -58 c-3 -32 -2 -61 2 -63 4 -3 679 -4 1501 -4 822 0 1502 -3 1511 -6 9 -3 16 -10 16 -15 0 -7 -229 -299 -250 -319 -3 -3 -30 -36 -60 -75 -30 -38 -57 -72 -60 -75 -3 -3 -30 -36 -60 -75 -30 -38 -68 -85 -85 -103 l-30 -32 -1234 0 c-815 0 -1238 -3 -1246 -10 -8 -7 -10 -28 -7 -63 2 -28 6 -53 7 -55 1 -1 531 -2 1178 -2 1091 0 1177 -1 1177 -16 0 -16 -40 -77 -66 -99 -6 -5 -33 -39 -60 -75 -27 -36 -56 -72 -64 -80 -8 -9 -26 -31 -40 -49 -14 -18 -41 -52 -60 -75 -19 -23 -46 -57 -60 -75 -14 -18 -41 -52 -60 -75 -19 -23 -46 -57 -60 -75 -14 -18 -36 -46 -48 -62 l-24 -29 -911 -2 -912 -3 0 -55 0 -55 853 -3 c696 -2 852 -5 852 -15 0 -7 -16 -32 -35 -54 -20 -24 -39 -60 -45 -85 -5 -24 -16 -72 -24 -108 -8 -36 -20 -87 -26 -115 -6 -27 -16 -65 -21 -82 -6 -18 -14 -54 -19 -80 -25 -134 -32 -154 -58 -164 -15 -6 -316 -9 -746 -9 l-721 1 -5 -56 c-3 -35 -1 -60 6 -66 6 -5 309 -10 730 -11 712 -3 719 -3 717 -23 -6 -49 -38 -200 -54 -252 -6 -18 -14 -54 -19 -80 -11 -62 -28 -135 -45 -198 -8 -27 -17 -73 -20 -102 -6 -44 -4 -54 14 -72 25 -25 52 -27 89 -7 15 8 59 29 97 46 39 17 99 45 135 61 36 17 79 37 95 44 17 7 62 27 100 45 114 51 129 58 145 64 8 3 22 10 30 14 8 5 31 16 50 25 68 30 176 79 240 108 36 17 79 37 95 44 287 127 310 140 368 215 l52 69 325 3 325 3 3 44 c7 93 27 86 -258 83 -214 -3 -251 -1 -256 12 -5 12 65 114 113 164 7 7 34 41 60 75 26 34 52 67 59 72 6 6 33 39 60 75 26 36 53 70 60 75 6 6 32 37 57 70 25 33 85 107 132 165 47 58 158 196 247 307 89 111 166 199 170 197 4 -3 8 -542 8 -1198 l0 -1194 -22 -6 c-13 -3 -946 -6 -2073 -6 -1582 0 -2054 -3 -2063 -12 -16 -16 -15 -23 4 -42 14 -14 220 -16 2120 -16 l2104 0 0 1289 0 1288 26 39 c15 21 29 41 33 44 3 3 24 28 45 55 49 62 72 85 86 85 7 0 9 -460 8 -1492 l-3 -1493 -2449 -3 c-1953 -2 -2451 0 -2458 10 -4 7 -8 1200 -8 2650 0 2099 3 2638 13 2645 6 4 334 10 727 13 l715 5 2 720 c2 396 5 726 8 733 3 10 354 12 1727 10 l1723 -3 3 -768z m-3590 58 c1 -319 0 -590 -3 -603 l-5 -22 -598 2 c-453 2 -597 6 -597 15 0 19 1168 1191 1185 1189 13 -1 15 -74 18 -581z m4143 -671 c8 -8 19 -14 24 -14 4 0 24 -15 45 -32 63 -55 102 -88 105 -88 2 0 19 -14 37 -31 18 -17 49 -41 68 -54 19 -12 46 -33 61 -46 14 -13 40 -35 58 -49 18 -14 41 -33 49 -42 9 -10 20 -18 25 -18 4 0 36 -28 71 -62 58 -58 64 -68 75 -125 8 -44 9 -68 1 -82 -5 -11 -10 -31 -10 -45 0 -14 -4 -26 -8 -26 -5 0 -30 -30 -57 -66 -26 -36 -56 -74 -65 -83 -9 -9 -39 -45 -66 -81 -27 -36 -55 -73 -64 -82 -15 -19 -46 -24 -52 -9 -4 10 -123 111 -132 111 -3 0 -20 15 -39 33 -31 30 -59 53 -237 192 -130 102 -185 147 -188 156 -2 5 -8 9 -13 9 -6 0 -29 18 -52 39 -48 45 -93 81 -101 81 -3 0 -17 11 -31 24 -26 24 -26 50 1 60 8 3 14 11 14 19 0 7 20 34 45 60 25 27 45 51 45 54 0 11 67 91 127 150 45 44 72 63 95 66 53 7 152 -4 169 -19z m-626 -475 c55 -44 110 -89 121 -99 12 -10 52 -42 90 -71 38 -30 75 -59 82 -66 7 -7 41 -34 75 -60 34 -26 67 -52 72 -59 6 -6 39 -33 75 -60 36 -26 70 -53 75 -60 6 -6 39 -33 75 -59 36 -27 67 -53 70 -57 3 -4 31 -27 61 -50 141 -108 179 -142 179 -159 0 -9 -4 -19 -8 -21 -5 -1 -33 -34 -63 -73 -30 -38 -70 -87 -91 -109 -35 -38 -37 -39 -60 -24 -12 9 -34 26 -48 38 -14 12 -52 43 -85 68 -33 26 -66 52 -73 59 -7 7 -41 34 -75 60 -34 26 -66 52 -72 59 -5 6 -39 33 -75 60 -36 26 -69 53 -75 60 -5 6 -39 33 -75 60 -36 27 -72 56 -81 64 -21 20 -52 45 -134 110 -39 30 -72 57 -75 60 -3 3 -36 30 -75 60 -38 30 -76 59 -83 65 -50 39 -52 49 -19 85 12 14 47 56 77 95 80 102 83 105 100 105 8 0 60 -37 115 -81z m-258 -382 c4 -7 36 -34 70 -60 34 -26 68 -53 75 -60 12 -11 146 -119 177 -144 13 -9 8 -20 -34 -75 -27 -34 -55 -67 -61 -73 -6 -5 -33 -39 -60 -75 -26 -36 -53 -69 -60 -75 -6 -5 -33 -39 -59 -75 -27 -36 -52 -67 -56 -70 -4 -3 -29 -33 -56 -67 -26 -34 -77 -98 -113 -143 -36 -45 -87 -110 -115 -144 -101 -128 -169 -211 -175 -216 -3 -3 -27 -33 -53 -67 -26 -34 -53 -68 -60 -75 -7 -7 -35 -42 -61 -78 -27 -36 -54 -69 -60 -75 -6 -5 -47 -55 -91 -110 -44 -55 -82 -102 -85 -105 -3 -3 -37 -45 -75 -93 -112 -141 -135 -170 -170 -212 -19 -22 -50 -60 -70 -85 -43 -55 -135 -170 -212 -267 -32 -39 -80 -100 -107 -135 -27 -35 -57 -70 -66 -79 -9 -9 -39 -47 -65 -83 -35 -47 -55 -66 -71 -66 -12 0 -24 4 -26 10 -1 5 -28 28 -59 52 -214 165 -275 218 -271 237 2 9 16 30 31 46 15 17 50 58 77 93 27 35 74 94 104 132 30 38 77 97 104 132 27 35 54 68 60 73 6 6 36 42 66 80 30 39 57 72 60 75 3 3 41 50 85 105 44 55 85 105 91 110 6 6 33 39 60 75 26 36 53 70 60 75 6 6 33 39 60 75 26 36 53 70 60 75 6 6 33 39 60 75 26 36 53 70 60 75 6 6 33 38 60 73 27 35 74 94 104 132 30 38 77 97 104 132 27 35 54 68 60 73 7 6 34 39 60 75 27 36 54 70 60 75 7 6 34 39 60 75 27 36 54 70 60 75 7 6 33 37 59 70 26 33 67 85 92 115 25 30 66 82 92 115 26 33 52 65 58 71 5 7 33 41 60 77 50 66 84 84 102 54z m493 -400 c14 -12 57 -47 95 -77 39 -30 76 -60 83 -67 7 -7 41 -34 75 -60 59 -45 86 -71 87 -84 0 -3 -11 -18 -24 -32 -13 -14 -45 -53 -70 -86 -25 -33 -52 -66 -59 -73 -7 -7 -37 -44 -67 -83 -30 -38 -57 -72 -60 -75 -3 -3 -68 -84 -145 -180 -77 -96 -145 -179 -151 -185 -6 -5 -33 -39 -60 -75 -26 -36 -53 -69 -60 -75 -6 -5 -33 -38 -60 -73 -27 -35 -75 -96 -107 -135 -31 -40 -84 -106 -117 -147 -33 -41 -86 -107 -117 -147 -32 -39 -80 -100 -107 -135 -27 -35 -54 -67 -60 -73 -7 -5 -34 -39 -60 -75 -27 -36 -54 -69 -60 -75 -7 -5 -33 -38 -59 -72 -26 -34 -53 -68 -60 -75 -7 -7 -48 -58 -92 -113 -44 -55 -83 -102 -86 -105 -4 -3 -30 -36 -60 -75 -29 -38 -55 -72 -59 -75 -3 -3 -30 -36 -60 -75 -30 -38 -60 -74 -66 -80 -6 -5 -26 -30 -44 -55 -55 -73 -82 -94 -92 -72 -1 4 -48 43 -103 87 -54 44 -109 89 -121 100 -12 11 -47 38 -78 60 -30 22 -56 47 -56 55 0 12 106 152 179 236 10 12 43 52 72 90 30 38 59 74 65 79 6 6 33 39 60 75 26 36 53 70 60 75 6 6 33 39 60 75 26 36 53 70 60 75 6 6 33 38 60 73 27 35 74 94 104 132 30 38 77 97 104 132 27 35 54 68 60 73 7 6 34 39 60 75 27 36 54 70 61 75 6 6 35 42 64 80 30 39 56 72 60 75 3 3 69 84 146 180 77 96 146 181 152 188 7 7 34 41 60 75 26 34 53 68 60 75 7 7 34 41 60 75 26 34 52 67 59 72 6 6 32 37 57 70 26 33 76 96 111 140 36 44 91 115 123 157 63 84 82 93 123 55z m-2514 -2338 c55 -45 108 -88 119 -97 11 -10 52 -42 90 -72 39 -30 72 -57 75 -60 3 -3 37 -30 75 -60 39 -30 75 -60 80 -66 6 -6 39 -33 75 -60 36 -26 70 -53 75 -59 6 -6 31 -28 58 -49 26 -21 45 -41 43 -44 -6 -9 -62 -37 -271 -132 -38 -17 -88 -40 -110 -50 -22 -10 -67 -30 -100 -45 -33 -14 -78 -35 -101 -46 -53 -25 -64 -24 -100 5 -16 13 -87 70 -157 126 -124 100 -129 104 -122 134 3 17 10 51 15 76 14 73 31 143 41 177 6 18 14 54 19 80 13 69 30 141 46 197 8 26 14 63 14 81 0 29 9 41 31 44 4 1 51 -35 105 -80z m-218 -846 c7 -7 16 -13 20 -13 4 0 25 -16 47 -35 39 -34 39 -35 14 -35 -15 0 -32 -7 -39 -15 -7 -8 -20 -15 -29 -15 -9 0 -25 -7 -35 -15 -11 -8 -27 -15 -37 -15 -9 0 -22 -7 -29 -15 -7 -8 -21 -15 -32 -15 -15 0 -17 3 -8 19 5 11 10 35 10 53 1 18 7 44 15 58 8 14 14 45 15 69 l0 43 38 -28 c20 -16 43 -34 50 -41z"/> <path d="M2239 5773 c0 -5 -1 -30 -2 -58 l-2 -50 1740 0 1740 0 3 58 3 57 -1741 0 c-957 0 -1740 -3 -1741 -7z"/> <path d="M6799 6335 c-32 -21 -99 -94 -99 -108 0 -3 -20 -27 -45 -54 -49 -52 -58 -88 -27 -116 28 -26 58 -20 91 16 17 17 31 35 31 38 0 13 124 139 136 139 18 0 84 -40 84 -51 0 -5 6 -9 14 -9 8 0 16 -6 19 -14 8 -19 51 -28 81 -16 21 8 26 16 26 43 0 33 -24 67 -48 67 -7 0 -12 7 -12 15 0 8 -7 15 -15 15 -9 0 -18 7 -21 15 -4 8 -14 15 -24 15 -10 0 -23 7 -30 15 -21 25 -117 19 -161 -10z"/> <path d="M6033 5374 c-21 -26 -52 -63 -68 -83 -17 -20 -46 -56 -65 -81 -19 -25 -46 -58 -61 -73 -42 -45 -54 -73 -39 -92 29 -35 55 -18 152 98 199 240 216 269 151 275 -27 3 -36 -4 -70 -44z"/> <path d="M5655 4903 c-15 -21 -33 -42 -39 -48 -7 -5 -34 -39 -60 -75 -27 -36 -54 -69 -60 -75 -7 -5 -34 -39 -60 -75 -27 -36 -54 -69 -60 -75 -6 -5 -47 -55 -91 -110 -44 -55 -82 -102 -86 -105 -6 -6 -103 -126 -169 -210 -69 -87 -128 -161 -167 -207 -19 -23 -47 -57 -61 -76 -54 -69 -227 -282 -238 -292 -6 -5 -33 -39 -60 -75 -27 -36 -56 -72 -64 -81 -15 -15 -73 -88 -155 -194 -22 -28 -48 -60 -58 -70 -54 -53 -61 -115 -14 -115 26 0 67 41 142 140 27 36 54 70 61 75 6 6 33 38 60 73 27 35 74 94 104 132 30 38 77 97 104 132 27 35 54 68 60 73 7 6 34 39 61 75 27 36 56 72 64 81 24 25 54 60 112 135 30 38 59 74 65 79 6 6 33 38 60 73 81 105 221 279 271 339 19 23 47 57 61 76 52 67 227 282 238 292 6 6 25 29 43 52 41 54 39 87 -5 91 -26 3 -35 -3 -59 -35z"/> <path d="M5873 3823 c-16 -16 -49 -55 -74 -88 -26 -33 -59 -75 -75 -94 -16 -19 -43 -50 -59 -70 -17 -20 -46 -56 -65 -81 -19 -25 -40 -49 -46 -55 -6 -5 -33 -38 -60 -73 -27 -35 -74 -94 -104 -132 -30 -38 -77 -97 -104 -132 -27 -35 -54 -67 -60 -73 -6 -5 -47 -55 -91 -110 -44 -55 -82 -102 -85 -105 -6 -5 -104 -126 -157 -194 -18 -22 -33 -48 -33 -56 0 -21 20 -40 41 -40 16 0 91 80 159 170 18 25 38 50 45 55 6 6 32 37 58 70 26 33 67 85 92 115 25 30 66 82 92 115 26 33 52 65 59 70 6 6 33 38 60 73 27 35 74 94 104 132 30 38 77 97 104 132 27 35 54 68 60 73 6 6 47 55 91 110 44 55 86 106 93 114 7 8 20 25 29 38 14 22 14 25 -2 43 -24 27 -39 25 -72 -7z"/> <path d="M4023 2648 c-6 -7 -13 -24 -16 -38 -3 -14 -11 -47 -17 -75 -7 -27 -18 -75 -26 -106 -8 -30 -14 -67 -14 -82 0 -14 -4 -29 -10 -32 -17 -10 -11 -41 10 -60 19 -17 22 -17 36 -3 16 16 21 33 49 168 7 36 18 81 24 100 13 42 17 112 7 128 -9 16 -31 15 -43 0z"/> </g> </svg> 