<svg version="1.0" xmlns="http://www.w3.org/2000/svg"  width="90.000000pt" height="79.000000pt" viewBox="0 0 90.000000 79.000000"  preserveAspectRatio="xMidYMid meet">  <g transform="translate(0.000000,79.000000) scale(0.100000,-0.100000)" fill="#000000" stroke="none"> <path d="M364 625 c-223 -140 -206 -119 -219 -267 -6 -62 -4 -83 8 -102 24 -37 243 -159 271 -152 13 3 38 1 55 -5 29 -10 35 -9 62 17 16 15 29 35 29 45 0 10 28 33 71 59 63 37 73 40 81 26 14 -25 44 -19 72 15 14 17 26 34 27 37 0 4 3 16 6 27 9 33 14 279 6 291 -16 23 -218 134 -243 134 -16 0 -102 -48 -226 -125z m353 38 l93 -56 -195 -113 -196 -113 -104 57 c-57 31 -104 59 -104 62 0 3 82 56 182 118 144 89 187 111 206 107 14 -4 67 -31 118 -62z m98 -190 c-3 -133 -1 -123 -24 -123 -11 0 -28 -11 -38 -23 -25 -32 -183 -122 -207 -118 -12 2 -33 -12 -56 -38 -63 -68 -73 -54 -64 86 7 89 9 96 36 116 29 22 338 204 349 206 3 1 5 -47 4 -106z m-473 -76 c32 -18 59 -36 61 -42 2 -5 0 -48 -5 -95 -5 -47 -6 -95 -3 -107 3 -13 4 -23 1 -23 -2 0 -53 29 -114 65 -79 47 -112 72 -116 89 -3 13 -1 57 4 97 5 41 10 82 10 92 0 15 7 13 53 -13 28 -17 78 -45 109 -63z m458 -96 c0 -20 -19 -41 -37 -41 -18 0 -16 21 3 48 17 24 34 21 34 -7z m-250 -132 c0 -20 -21 -49 -35 -49 -18 0 -19 14 -5 41 11 20 40 26 40 8z"/> <path d="M662 353 c-63 -37 -109 -69 -103 -71 14 -5 191 99 211 122 7 9 11 16 9 16 -2 0 -55 -30 -117 -67z"/> <path d="M517 341 c-3 -16 -3 -46 0 -67 5 -31 8 -34 14 -19 11 28 11 115 0 115 -5 0 -11 -13 -14 -29z"/> <path d="M196 394 c-3 -25 -4 -50 -1 -55 10 -15 167 -99 176 -93 17 10 10 90 -8 106 -23 19 -142 88 -152 88 -5 0 -11 -21 -15 -46z m104 -46 c19 -11 30 -23 23 -25 -13 -5 -68 21 -78 37 -11 17 18 11 55 -12z"/> <path d="M310 211 c0 -12 29 -35 36 -28 11 10 -5 37 -21 37 -8 0 -15 -4 -15 -9z"/> <path d="M58 254 c-24 -13 -26 -17 -16 -34 7 -10 16 -16 20 -14 4 3 8 0 8 -6 0 -6 5 -8 10 -5 6 3 10 1 10 -6 0 -7 3 -9 7 -5 4 4 -3 16 -17 26 -24 18 -24 19 -6 39 22 25 20 25 -16 5z"/> </g> </svg>