<svg version="1.0" xmlns="http://www.w3.org/2000/svg"  width="105.000000pt" height="77.000000pt" viewBox="0 0 105.000000 77.000000"  preserveAspectRatio="xMidYMid meet">  <g transform="translate(0.000000,77.000000) scale(0.100000,-0.100000)" fill="#000000" stroke="none"> <path d="M550 711 c-53 -15 -74 -28 -122 -74 -34 -33 -70 -81 -89 -119 -22 -44 -48 -75 -83 -104 -49 -38 -51 -42 -56 -98 -5 -51 -3 -61 17 -80 13 -11 23 -26 23 -33 0 -21 31 -43 53 -38 13 3 43 -5 71 -20 27 -14 63 -25 79 -25 18 0 36 -8 47 -22 l18 -23 29 21 c15 11 35 34 43 51 10 21 44 50 99 85 103 65 97 63 104 38 7 -28 31 -25 68 8 41 36 53 90 52 225 0 129 -9 146 -98 192 -71 36 -158 42 -255 16z m212 -18 c28 -10 66 -31 85 -48 34 -30 34 -30 40 -136 l6 -107 -27 5 c-31 6 -80 -33 -90 -72 -4 -14 -27 -36 -59 -55 -28 -17 -67 -41 -85 -52 -31 -19 -34 -20 -46 -3 -9 13 -20 16 -37 12 -19 -5 -14 3 23 36 33 30 52 58 67 100 40 110 78 159 151 197 41 21 80 60 60 60 -19 0 -121 -59 -153 -89 -34 -30 -57 -74 -82 -151 -13 -41 -33 -71 -80 -120 -38 -40 -65 -78 -69 -98 -5 -22 -13 -32 -26 -32 -22 0 -141 61 -188 97 -31 23 -33 28 -30 75 3 47 7 54 49 90 l45 38 40 -38 c41 -39 122 -72 175 -72 26 0 29 5 48 67 11 36 18 70 15 75 -3 4 -31 15 -62 24 -83 23 -109 34 -128 55 -17 19 -17 21 14 52 18 17 32 26 32 19 0 -6 35 -29 78 -51 93 -47 117 -43 106 17 -6 35 -28 63 -70 88 -17 11 -16 13 16 22 54 16 128 14 182 -5z m-212 -60 c0 -8 -4 -11 -10 -8 -5 3 -10 -3 -10 -14 0 -12 -4 -21 -10 -21 -5 0 -10 11 -10 25 0 14 -4 25 -10 25 -5 0 -10 7 -10 14 0 12 6 13 30 5 17 -6 30 -18 30 -26z m-150 -108 c7 -8 45 -25 84 -36 39 -12 74 -25 79 -29 4 -3 2 -30 -4 -58 -14 -59 -18 -60 -97 -37 -54 16 -122 67 -122 91 0 18 32 84 41 84 3 0 12 -7 19 -15z m468 -171 c6 -55 -68 -101 -76 -48 -3 24 44 87 62 81 6 -2 12 -17 14 -33z m-298 -148 c25 -31 -37 -111 -71 -91 -15 10 -2 55 23 83 25 26 31 27 48 8z"/> <path d="M148 239 c-31 -18 -20 -46 40 -98 107 -94 245 -144 284 -102 11 11 9 12 -9 6 -45 -13 -81 -7 -144 24 -58 28 -169 117 -169 135 0 4 5 16 10 27 12 22 11 22 -12 8z"/> <path d="M700 189 c-73 -46 -107 -75 -45 -39 88 52 130 80 120 80 -5 0 -39 -19 -75 -41z"/> </g> </svg>