<svg version="1.0" xmlns="http://www.w3.org/2000/svg"  width="99.000000pt" height="86.000000pt" viewBox="0 0 99.000000 86.000000"  preserveAspectRatio="xMidYMid meet">  <g transform="translate(0.000000,86.000000) scale(0.100000,-0.100000)" fill="#000000" stroke="none"> <path d="M699 677 c-20 -8 -63 -32 -95 -54 l-59 -41 -127 16 c-118 15 -129 15 -144 0 -15 -15 -10 -20 61 -68 l78 -52 -74 -69 c-79 -72 -88 -76 -168 -58 -37 8 -55 7 -72 -2 -22 -11 -20 -13 34 -47 47 -29 55 -37 45 -50 -10 -11 -9 -17 7 -28 39 -29 84 -17 214 56 68 39 125 70 126 68 1 -2 14 -50 28 -107 15 -57 29 -106 32 -109 3 -3 13 2 24 12 18 17 35 93 49 226 l7 65 85 57 c128 87 150 106 150 132 0 13 -9 31 -20 41 -25 23 -132 30 -181 12z m129 -19 c-3 -7 -21 -22 -41 -33 -20 -11 -37 -26 -37 -32 0 -7 2 -13 5 -13 13 0 83 40 94 54 18 22 31 20 31 -4 0 -18 -53 -63 -132 -113 -16 -9 -40 -25 -55 -34 -24 -16 -26 -16 -21 -1 4 9 4 18 1 21 -8 8 -153 -103 -153 -117 0 -6 -57 -44 -127 -84 -120 -67 -174 -85 -188 -62 -18 29 406 380 501 414 50 19 127 21 122 4z m-311 -92 c2 -1 -20 -20 -48 -41 -47 -35 -52 -37 -61 -21 -6 10 -21 27 -34 39 -13 11 -24 24 -24 28 0 6 159 1 167 -5z m112 -213 c-4 -43 -10 -90 -14 -105 -11 -45 -33 -34 -40 20 -4 26 -14 58 -22 71 -15 24 -14 26 20 58 57 51 64 46 56 -44z"/> <path d="M706 349 c18 -20 18 -22 1 -51 l-18 -31 23 15 c29 19 34 50 13 72 -24 24 -41 20 -19 -5z"/> <path d="M401 195 c-56 -41 -101 -82 -101 -90 0 -8 9 -19 20 -25 17 -9 35 -3 111 41 50 28 88 53 86 56 -3 2 -43 -16 -89 -41 -47 -25 -88 -46 -91 -46 -4 0 -7 8 -7 18 0 11 33 43 85 81 78 57 104 81 91 81 -2 0 -50 -34 -105 -75z"/> </g> </svg>