<svg version="1.0" xmlns="http://www.w3.org/2000/svg"  width="300.000000pt" height="300.000000pt" viewBox="0 0 300.000000 300.000000"  preserveAspectRatio="xMidYMid meet">  <g transform="translate(0.000000,300.000000) scale(0.100000,-0.100000)" fill="#000000" stroke="none"> <path d="M1558 2513 c-37 -40 -49 -68 -53 -124 -2 -27 -8 -56 -15 -64 -7 -8 -10 -20 -8 -27 3 -7 -15 -22 -42 -34 -26 -12 -62 -40 -81 -62 l-33 -40 -34 29 c-18 16 -42 29 -52 29 -24 0 -26 -13 -6 -30 8 -6 22 -34 32 -62 16 -49 16 -61 -3 -191 -5 -34 -1 -42 26 -67 24 -22 31 -37 31 -64 0 -34 -2 -36 -34 -36 -21 0 -45 -9 -63 -23 -15 -13 -48 -35 -73 -49 -61 -35 -156 -137 -182 -195 -32 -71 -31 -164 3 -228 52 -101 158 -148 286 -125 56 9 163 52 163 64 0 6 -44 -6 -56 -15 -6 -5 -14 -6 -18 -2 -4 4 -11 1 -16 -7 -12 -19 -157 -19 -214 0 -48 16 -100 65 -121 117 -19 45 -17 174 3 181 7 2 12 9 12 17 0 40 232 235 280 235 9 0 27 11 40 25 19 20 22 32 17 65 -3 23 -13 47 -23 55 -16 11 -18 29 -19 130 0 81 4 120 13 127 6 6 12 7 12 3 0 -8 93 65 98 77 2 5 8 6 13 2 5 -3 9 0 9 5 0 6 6 11 13 11 8 0 22 9 32 20 23 25 25 25 57 -5 15 -14 31 -25 37 -25 5 0 11 -3 13 -7 4 -10 76 -72 106 -92 11 -8 19 -18 16 -23 -12 -19 -14 -80 -3 -100 16 -30 13 -97 -5 -117 -9 -10 -16 -23 -16 -29 0 -7 -4 -12 -9 -12 -5 0 -12 -12 -15 -26 -9 -34 16 -72 52 -80 36 -9 132 -63 132 -75 0 -5 5 -9 11 -9 22 0 123 -116 114 -130 -4 -6 -3 -10 2 -10 21 0 35 -64 31 -133 -6 -84 -28 -132 -77 -171 -73 -56 -120 -46 -247 54 -49 38 -95 70 -101 70 -7 0 -13 5 -13 10 0 6 -8 10 -19 10 -10 0 -35 7 -54 15 -20 8 -58 15 -84 14 l-48 -1 57 -14 c78 -18 160 -62 243 -129 121 -97 166 -116 229 -95 42 13 101 77 127 134 69 157 0 316 -191 442 -42 28 -79 44 -98 44 -18 0 -32 6 -36 16 -7 18 19 84 33 84 26 0 34 43 21 110 -16 82 -7 147 26 195 13 20 24 40 24 45 0 15 -56 -9 -80 -35 l-23 -24 -38 42 c-20 24 -56 51 -78 62 -22 10 -38 22 -35 27 4 6 1 21 -6 34 -17 31 4 89 42 117 26 19 29 19 70 4 48 -19 138 -23 138 -7 0 6 -9 10 -20 10 -12 0 -43 20 -69 45 -40 38 -55 45 -88 45 -30 0 -45 -6 -65 -27z"/> <path d="M1375 1360 c3 -4 17 -11 32 -15 47 -11 97 -38 130 -69 18 -16 39 -31 48 -32 8 -1 27 -16 42 -33 15 -17 31 -31 36 -31 7 0 77 -66 77 -73 0 -2 -21 -19 -47 -37 -53 -37 -69 -51 -160 -138 -35 -32 -63 -64 -63 -70 0 -7 -5 -12 -10 -12 -23 0 -41 -86 -25 -122 10 -25 -25 -24 -58 2 -33 26 -88 121 -93 163 -3 18 -9 43 -14 57 -23 67 -20 160 5 160 21 0 119 44 139 62 27 24 17 23 -44 -8 -28 -14 -76 -28 -105 -31 -66 -7 -64 -1 -31 -163 26 -129 67 -223 116 -263 50 -42 100 -51 210 -38 122 14 170 3 170 -40 0 -13 -12 -21 -42 -29 -59 -14 -72 -23 -76 -49 -4 -23 41 -91 59 -91 5 0 0 13 -11 28 -12 16 -18 35 -15 44 8 21 65 44 132 53 71 9 98 39 97 107 0 42 -5 55 -27 74 -56 48 -105 42 -276 -31 -52 -22 -68 -25 -87 -16 -53 24 -15 111 92 212 61 58 194 151 241 171 l28 11 -30 7 c-44 10 -62 22 -145 94 -85 74 -187 132 -254 145 -25 5 -43 5 -41 1z m449 -625 c22 -34 20 -70 -6 -95 -21 -20 -65 -29 -54 -11 9 14 -43 71 -64 71 -10 0 -22 5 -25 10 -4 6 -11 7 -17 4 -6 -4 -9 -1 -6 7 8 23 50 39 104 39 44 0 54 -4 68 -25z"/> </g> </svg>