<svg version="1.0" xmlns="http://www.w3.org/2000/svg"  width="73.000000pt" height="83.000000pt" viewBox="0 0 73.000000 83.000000"  preserveAspectRatio="xMidYMid meet">  <g transform="translate(0.000000,83.000000) scale(0.100000,-0.100000)" fill="#000000" stroke="none"> <path d="M260 793 c-8 -4 -59 -39 -112 -80 l-98 -74 1 -102 c1 -56 4 -144 8 -196 l6 -95 90 -53 c50 -29 98 -55 107 -59 12 -3 34 8 62 31 l44 36 60 -41 c34 -22 72 -40 85 -40 14 0 53 20 88 44 l64 43 3 136 3 136 -60 35 c-33 19 -70 36 -83 38 -21 3 -23 8 -23 67 l0 64 -105 58 c-106 60 -113 62 -140 52z m133 -70 c48 -27 87 -51 87 -54 0 -14 -170 -139 -190 -139 -20 0 -214 99 -207 106 39 39 178 133 198 133 14 1 65 -20 112 -46z m-115 -393 c2 -132 0 -170 -10 -170 -7 0 -53 24 -103 53 l-90 53 -3 172 -2 172 102 -55 103 -54 3 -171z m182 246 c0 -8 -19 -28 -42 -43 -55 -37 -67 -71 -67 -200 -1 -63 -5 -104 -12 -109 -23 -14 -29 24 -25 145 2 99 6 125 19 132 8 5 37 27 64 48 53 44 63 48 63 27z m129 -71 c34 -20 61 -39 61 -43 0 -4 -27 -22 -60 -40 l-60 -33 -70 38 c-38 21 -70 41 -70 45 0 10 102 66 122 67 9 0 44 -15 77 -34z m-145 -90 c30 -19 62 -35 71 -35 13 0 15 -18 15 -115 0 -134 -1 -134 -86 -82 l-53 32 -1 102 c0 56 -3 108 -6 117 -9 23 -1 20 60 -19z m206 -84 l0 -99 -49 -36 c-56 -42 -65 -44 -56 -15 4 12 8 61 8 109 l0 87 46 26 c25 15 47 27 49 27 1 0 2 -45 2 -99z"/> <path d="M93 524 c6 -40 4 -37 34 -53 31 -16 33 -15 33 22 0 25 -6 36 -29 50 -40 24 -43 22 -38 -19z"/> <path d="M188 505 c-2 -2 -2 -20 0 -38 3 -24 12 -39 33 -51 l29 -17 0 38 c0 32 -5 42 -29 56 -15 9 -30 14 -33 12z"/> <path d="M90 425 c0 -28 5 -37 30 -50 39 -20 40 -20 40 20 0 28 -5 37 -30 50 -39 20 -40 20 -40 -20z"/> <path d="M190 372 c0 -31 5 -40 30 -54 l30 -17 0 37 c0 31 -5 40 -30 54 l-30 17 0 -37z"/> <path d="M90 333 c0 -34 8 -46 37 -62 31 -16 33 -15 33 24 0 28 -5 37 -30 50 -39 20 -40 19 -40 -12z"/> <path d="M190 273 c0 -32 5 -42 30 -56 l30 -18 0 38 c0 32 -5 42 -30 56 l-30 18 0 -38z"/> <path d="M24 186 c50 -40 286 -166 312 -166 25 0 154 69 130 70 -5 0 -31 -14 -58 -30 -26 -17 -60 -30 -75 -30 -14 0 -67 24 -117 54 -121 71 -216 121 -192 102z"/> </g> </svg> 