<svg version="1.0" xmlns="http://www.w3.org/2000/svg"  width="82.000000pt" height="85.000000pt" viewBox="0 0 82.000000 85.000000"  preserveAspectRatio="xMidYMid meet">  <g transform="translate(0.000000,85.000000) scale(0.100000,-0.100000)" fill="#000000" stroke="none"> <path d="M330 620 c-85 -77 -159 -151 -164 -164 -7 -18 -3 -62 14 -151 29 -148 32 -155 60 -137 18 11 20 10 20 -8 0 -27 22 -25 78 7 201 114 304 178 312 193 11 21 14 293 3 303 -3 4 -30 -7 -60 -24 -39 -22 -54 -27 -57 -17 -2 7 -10 40 -18 72 -7 33 -17 61 -23 63 -5 1 -80 -60 -165 -137z m176 45 c8 -31 14 -58 12 -60 -2 -1 -58 -34 -124 -73 -67 -39 -124 -79 -128 -87 -3 -9 -6 -65 -6 -125 0 -84 -3 -110 -15 -120 -9 -7 -17 -11 -19 -9 -1 2 -13 60 -26 128 l-24 123 70 67 c116 112 238 221 242 217 2 -2 10 -30 18 -61z m134 -71 c0 -41 -2 -45 -16 -34 -8 8 -20 22 -26 33 -8 16 -7 23 8 34 29 21 34 16 34 -33z m-20 -59 c28 -9 26 -50 -5 -86 -13 -16 -27 -46 -30 -67 -4 -20 -7 -40 -8 -44 -1 -4 -51 -36 -112 -71 l-110 -64 -11 27 c-7 15 -23 36 -38 47 -31 25 -34 58 -6 73 26 14 50 61 50 99 0 27 9 35 108 94 l107 63 17 -32 c10 -18 27 -35 38 -39z m-307 -138 c-11 -18 -23 -30 -29 -27 -16 9 -4 64 19 84 22 18 22 18 25 -3 2 -12 -5 -36 -15 -54z m316 -33 c-13 -16 -29 -19 -29 -4 0 6 8 27 17 48 l17 37 4 -33 c2 -18 -2 -40 -9 -48z m-320 -120 c12 -15 21 -33 21 -40 0 -13 -40 -47 -48 -40 -7 7 -8 106 -1 106 4 0 17 -12 28 -26z"/> <path d="M453 480 c-26 -32 -44 -75 -36 -84 4 -3 15 -6 25 -6 11 0 18 -7 18 -20 0 -15 -6 -19 -22 -17 -17 1 -23 -3 -23 -18 0 -33 43 -28 76 9 37 40 36 81 -1 81 -14 0 -28 -4 -32 -10 -4 -5 -8 0 -8 13 0 21 4 23 50 26 8 1 15 10 15 21 0 11 -7 20 -15 20 -8 0 -17 3 -20 6 -3 3 -15 -6 -27 -21z"/> <path d="M112 200 l-33 -18 75 -41 c41 -23 81 -41 88 -41 7 1 -3 8 -22 16 -19 8 -49 26 -68 40 -32 25 -33 27 -16 45 20 22 19 22 -24 -1z"/> </g> </svg>