<svg version="1.0" xmlns="http://www.w3.org/2000/svg"  width="113.000000pt" height="83.000000pt" viewBox="0 0 113.000000 83.000000"  preserveAspectRatio="xMidYMid meet">  <g transform="translate(0.000000,83.000000) scale(0.100000,-0.100000)" fill="#000000" stroke="none"> <path d="M555 727 c-205 -105 -252 -149 -327 -302 -34 -70 -52 -121 -53 -146 0 -35 -4 -40 -52 -70 -29 -17 -53 -33 -53 -36 0 -3 13 -2 30 2 22 5 42 -1 80 -22 55 -31 60 -39 30 -48 -11 -3 -20 -11 -20 -16 0 -14 7 -12 73 27 34 20 87 43 116 51 30 7 79 27 108 44 29 17 57 28 63 24 12 -7 60 23 60 39 0 20 133 85 163 79 22 -4 30 0 44 26 11 19 43 46 81 67 34 19 62 40 62 45 0 15 -32 3 -112 -45 -144 -85 -365 -206 -377 -206 -35 0 22 114 101 203 46 53 81 78 184 136 69 39 129 71 133 71 3 0 6 -33 6 -72 0 -107 19 -102 23 6 2 70 6 92 20 102 9 7 14 15 10 19 -3 4 -75 -32 -160 -79 -158 -89 -210 -106 -312 -106 -65 0 -100 18 -104 52 -3 22 5 31 55 61 32 19 113 62 181 96 67 34 122 66 122 71 0 6 -3 10 -7 10 -5 0 -80 -37 -168 -83z m-155 -217 c21 -9 59 -11 116 -7 l86 5 -37 -38 c-47 -48 -114 -67 -217 -61 -66 3 -80 63 -30 130 l25 34 13 -25 c7 -14 27 -31 44 -38z m0 -141 c56 0 70 -3 70 -15 0 -17 -3 -18 -95 -34 -104 -18 -153 8 -127 65 l11 25 36 -21 c27 -16 51 -21 105 -20z m-169 -63 c29 -37 90 -41 194 -11 19 6 21 2 20 -40 l0 -46 -49 -14 c-81 -24 -142 -17 -179 20 -16 16 -25 115 -11 115 3 0 15 -11 25 -24z m-34 -106 c7 -10 31 -25 54 -31 37 -11 39 -14 24 -26 -15 -10 -25 -8 -64 14 -63 36 -69 42 -51 53 21 13 24 13 37 -10z"/> <path d="M953 585 c0 -44 2 -61 4 -37 2 23 2 59 0 80 -2 20 -4 1 -4 -43z"/> <path d="M90 320 c-14 -11 -31 -20 -38 -20 -7 0 -15 -7 -19 -15 -6 -17 23 -44 47 -44 12 0 11 2 -2 10 -29 16 -21 35 25 63 23 14 35 25 27 25 -8 0 -26 -8 -40 -19z"/> <path d="M1104 309 c-3 -6 1 -18 10 -27 15 -15 16 -14 16 11 0 27 -13 36 -26 16z"/> </g> </svg>