<svg version="1.0" xmlns="http://www.w3.org/2000/svg"  width="300.000000pt" height="151.000000pt" viewBox="0 0 300.000000 151.000000"  preserveAspectRatio="xMidYMid meet">  <g transform="translate(0.000000,151.000000) scale(0.050000,-0.050000)" fill="#000000" stroke="none"> <path d="M2498 2944 c-47 -42 -64 -77 -72 -149 l-11 -93 -763 -6 -762 -6 -117 -55 c-259 -121 -413 -328 -462 -620 -11 -64 -20 -75 -64 -75 -215 0 -251 -92 -243 -624 l6 -419 65 -59 c49 -43 86 -58 143 -58 l77 0 24 -125 c53 -270 238 -502 475 -598 181 -73 1611 -83 1736 -12 87 49 170 184 170 277 0 126 60 158 300 158 240 0 300 -32 300 -158 0 -93 83 -228 170 -277 127 -72 1555 -61 1740 13 231 93 418 331 471 598 l24 124 77 0 c57 0 94 15 143 58 l65 59 6 419 c8 532 -28 624 -243 624 -44 0 -53 11 -64 75 -49 292 -203 499 -462 620 l-117 55 -762 6 -763 6 -11 93 c-8 72 -25 107 -72 149 l-63 56 -439 0 -439 0 -63 -56z m918 -179 l7 -65 -422 0 -421 0 0 57 c0 85 -2 84 429 78 l401 -5 6 -65z m1745 -277 c135 -62 230 -156 298 -292 l61 -122 0 -722 c-1 -891 -22 -962 -336 -1116 l-133 -66 -745 0 c-854 0 -808 -10 -845 187 -45 233 -139 293 -461 293 -322 0 -416 -60 -461 -293 -37 -197 9 -187 -845 -187 l-745 0 -133 66 c-143 70 -228 159 -296 307 -66 146 -60 1483 7 1627 84 180 201 285 379 341 164 52 4140 30 4255 -23z m-4861 -1138 l0 -410 -58 0 c-80 0 -82 13 -82 428 0 395 -1 392 83 392 l57 0 0 -410z m5536 40 c7 -432 4 -450 -76 -450 l-60 0 0 411 0 412 65 -7 65 -6 6 -360z"/> <path d="M886 2329 c-191 -95 -276 -275 -263 -557 13 -274 140 -242 159 40 18 277 112 408 293 408 80 0 130 42 122 101 -11 75 -170 79 -311 8z"/> <path d="M3855 2198 c-50 -29 -49 -35 98 -398 213 -527 222 -527 435 -11 141 340 149 372 101 411 -64 54 -114 -4 -208 -239 -113 -282 -100 -281 -211 -16 -121 290 -132 302 -215 253z"/> <path d="M4675 2198 c-57 -33 -53 -747 5 -778 81 -43 120 5 120 151 0 177 44 177 159 0 101 -155 127 -178 179 -162 70 23 68 80 -7 198 l-71 110 57 57 c120 119 86 342 -62 412 -80 38 -323 46 -380 12z m325 -178 c77 -77 19 -160 -111 -160 l-89 0 0 100 0 100 80 0 c53 0 93 -13 120 -40z"/> <path d="M644 1436 c-34 -34 -31 -206 5 -235 90 -75 162 52 122 212 -13 52 -85 65 -127 23z"/> </g> </svg>